<svg width="209" height="46" viewBox="0 0 209 46" fill="none" xmlns="http://www.w3.org/2000/svg">
<g clip-path="url(#clip0_4728_21622)">
<path fill-rule="evenodd" clip-rule="evenodd" d="M0.0016007 23.0559C0.0016007 18.5784 0.0016007 14.089 0.0016007 9.59968C0.00230794 8.52748 0.0912287 7.4574 0.267357 6.40151C0.88368 2.94032 3.09454 0.788287 6.45887 0.626882C9.31416 0.465519 12.1756 0.465519 15.0309 0.626882C18.5648 0.818175 20.8605 3.14954 21.2507 6.84985C21.4599 8.87036 21.3921 10.9327 21.426 12.9772C21.426 13.8141 21.149 14.3401 20.2272 14.3879C18.9375 14.4578 17.6522 14.5995 16.3766 14.8124C15.3701 14.9738 15.0252 14.4955 15.0252 13.5331C15.0252 12.0207 15.0535 10.5083 15.0252 9.00188C14.963 7.25036 14.3863 6.61073 12.7635 6.55693C11.5195 6.50312 10.2643 6.50312 9.02596 6.55693C7.32965 6.63463 6.71331 7.32807 6.67939 9.11544C6.63415 11.4109 6.67939 13.7005 6.67939 15.99V35.8903C6.67939 39.0227 7.13174 39.4771 10.1512 39.4771C11.1181 39.4771 12.085 39.4771 13.0518 39.4351C13.3194 39.4534 13.5875 39.4104 13.8379 39.3091C14.0882 39.2076 14.3148 39.0501 14.5023 38.8473C14.6897 38.6448 14.8335 38.4016 14.9237 38.1347C15.014 37.8679 15.0486 37.5836 15.0252 37.3011C15.0252 35.7827 15.0648 34.2762 15.0252 32.7639C15.0252 31.7118 15.3532 31.144 16.4501 31.108C17.7336 31.0602 19.0228 30.7792 20.3064 30.7613C20.6796 30.7613 21.3807 30.612 21.3807 31.6162C21.4607 34.4855 21.3359 37.357 21.0075 40.2064C20.5721 43.1953 18.3217 45.2039 15.4154 45.3593C12.2872 45.5446 9.15167 45.5446 6.0235 45.3593C2.41036 45.1201 0.120346 42.0236 0.0411853 37.3968C-0.0492844 32.6145 0.0411853 27.8321 0.0411853 23.0499L0.0016007 23.0559Z" fill="#FF6D1D"/>
<path fill-rule="evenodd" clip-rule="evenodd" d="M47.1309 9.64059C47.1356 8.60504 47.0647 7.57072 46.9191 6.54724C46.4064 3.09207 44.1833 0.776559 40.9349 0.607729C37.9037 0.463006 34.8504 0.481101 31.8192 0.607729C29.5013 0.734357 27.5345 1.91623 26.693 4.34028C26.0964 6.07798 25.7799 7.9136 25.757 9.76722C25.6734 20.9709 25.7179 32.1746 25.7179 43.3842V44.2706C25.7179 45.1088 26.0858 45.5067 26.9047 45.4766C28.2143 45.4344 29.5402 45.4163 30.8498 45.4766C31.8359 45.5248 32.1034 45.0304 32.0977 44.0655V34.1884L40.595 31.1735V37.2699C40.595 39.4888 40.595 41.6657 40.5615 43.8245C40.5336 45.145 40.9571 45.5912 42.1383 45.4826C43.1748 45.4042 44.2222 45.4826 45.2643 45.4826C47.1086 45.4826 47.1309 45.4525 47.1309 43.3902C47.1309 32.1343 47.1309 20.8784 47.1309 9.6225V9.64059ZM32.0867 27.7123V9.6225C32.0867 7.15022 32.6439 6.57738 34.8726 6.56531C36.1374 6.56531 37.4079 6.56531 38.6783 6.61958C38.9319 6.60753 39.185 6.65404 39.4207 6.75602C39.6563 6.858 39.8693 7.01311 40.0453 7.21103C40.2214 7.40894 40.3564 7.64516 40.4417 7.90395C40.5268 8.16274 40.5601 8.43819 40.5393 8.71197C40.5671 13.7772 40.5393 18.8544 40.5393 24.016V24.7215L32.0867 27.7123Z" fill="#FF6D1D"/>
<path fill-rule="evenodd" clip-rule="evenodd" d="M72.4589 40.1827C72.2642 41.6256 71.6025 42.944 70.5944 43.8983C69.5862 44.8524 68.2985 45.3788 66.9657 45.382C63.8127 45.5371 60.6487 45.5371 57.4956 45.382C56.0303 45.3589 54.6247 44.743 53.5498 43.6527C52.475 42.5626 51.8072 41.0754 51.6753 39.4782C51.4353 37.3173 51.4952 35.1149 51.4134 32.9122C51.3752 31.9989 51.8171 31.581 52.608 31.5034C53.89 31.372 55.1719 31.2586 56.4538 31.1035C57.343 30.9901 57.6431 31.4556 57.6431 32.3689C57.6431 33.9746 57.6431 35.5743 57.6431 37.1861C57.6431 38.6127 58.3249 39.3769 59.596 39.4185C61.1888 39.4782 62.7981 39.5082 64.3963 39.4185C65.8146 39.3409 66.4584 38.6724 66.4802 37.1382C66.5458 34.0662 66.5458 30.9999 66.4802 27.9398C66.4802 26.3578 65.7491 25.6475 64.2981 25.6057C62.4707 25.5402 60.6489 25.5581 58.843 25.6057C54.861 25.6954 52.0952 23.0987 51.9043 18.7173C51.7188 14.8817 51.7188 11.0381 51.9043 7.20259C52.1171 3.17334 54.4354 0.797588 58.1067 0.600595C60.8167 0.463297 63.5313 0.475236 66.2402 0.636412C67.7053 0.646791 69.1143 1.25537 70.1909 2.34296C71.2675 3.43052 71.9343 4.91873 72.0608 6.51612C72.2708 8.49705 72.3309 10.4936 72.2407 12.4854C72.197 13.4166 71.5643 13.6076 71.1169 13.715C69.9005 13.9837 68.6405 13.9538 67.4075 14.1329C66.4584 14.2761 66.0929 13.8702 66.1038 12.8734C66.1038 11.5124 66.1038 10.1454 66.1038 8.78442C66.1038 7.42344 65.4819 6.6534 64.2763 6.59373C62.8555 6.51015 61.4316 6.51015 60.0105 6.59373C58.7395 6.66534 58.1176 7.51895 58.1121 8.91575C58.1121 11.6437 58.1121 14.3657 58.1121 17.0817C58.1121 18.8009 58.8104 19.553 60.3978 19.6007C62.749 19.6724 65.1328 19.4694 67.4458 19.8394C70.7625 20.3588 72.4971 22.633 72.7153 26.2981C72.8407 28.3875 72.8081 30.4768 72.8081 32.5838C72.8948 35.1011 72.7798 37.6218 72.4643 40.117" fill="#FF6D1D"/>
<path fill-rule="evenodd" clip-rule="evenodd" d="M98.8632 0.5H95.3241C93.9133 0.5 93.5154 0.967512 93.5516 2.32148C93.5516 5.02942 93.5516 14.9444 93.5516 24.489L84.2365 27.555C84.2365 17.2941 84.2365 5.69732 84.2365 2.77687C84.2365 0.566788 84.2365 0.566787 82.1022 0.566787C81.1677 0.566787 80.2392 0.566787 79.2987 0.566787C77.1521 0.566787 77.1461 0.566788 77.1461 2.69186V40.858C77.1461 41.8537 77.1883 42.8373 77.1461 43.8332C77.08 45.0475 77.5141 45.5635 78.7681 45.4847H82.7412C83.9472 45.4847 84.2666 45.0839 84.2606 43.9243C84.2606 42.3396 84.2606 38.6418 84.2606 34.0699L93.6057 30.9734C93.6057 36.9175 93.6057 41.9388 93.6057 43.8209C93.6057 44.9928 93.9193 45.4664 95.2095 45.4664C96.8554 45.4664 98.0071 45.4664 98.7486 45.4664C100.666 45.4664 100.702 45.4179 100.702 43.4324C100.702 32.1513 100.702 20.8642 100.702 9.57099C100.702 7.19699 100.648 4.82299 100.702 2.44898C100.756 1.06467 100.395 0.524294 98.8933 0.524294" fill="#FF6D1D"/>
<path fill-rule="evenodd" clip-rule="evenodd" d="M111.47 25.8609V27.945C111.47 33.298 111.47 38.657 111.47 44.0037C111.47 45.0672 111.196 45.5531 110.173 45.4863C108.875 45.4256 107.571 45.4439 106.273 45.4863C105.344 45.5227 104.943 45.0733 104.987 44.0768C104.987 43.8276 104.987 43.5786 104.987 43.3355V2.71148C104.987 0.505888 104.987 0.505888 107.021 0.505888H109.172C111.691 0.505888 111.449 0.250698 111.454 3.10035C111.454 7.96112 111.454 12.8219 111.454 17.6827V19.3718C112.713 19.7546 113.511 19.6878 114.127 18.1565C116.327 12.6457 118.746 7.21985 121.04 1.75147C121.163 1.35582 121.406 1.0191 121.727 0.79781C122.049 0.576544 122.429 0.484194 122.805 0.536276C124.147 0.590958 125.494 0.536276 126.847 0.536276C128.079 0.536276 128.217 0.821854 127.623 2.19502C126.116 5.67656 124.57 9.13986 123.042 12.6092C121.766 15.4953 120.534 18.4117 119.192 21.2615C119.004 21.6355 118.91 22.0589 118.922 22.4866C118.934 22.9144 119.05 23.3308 119.258 23.6919C122.246 30.339 125.197 37.0043 128.112 43.6878C128.844 45.3345 128.75 45.4499 127.144 45.4499C125.841 45.4499 124.543 45.4073 123.245 45.4499C122.822 45.5069 122.394 45.4025 122.032 45.1538C121.67 44.9052 121.395 44.5273 121.254 44.0828C118.851 38.3835 116.387 32.7268 114.05 26.9972C113.5 25.63 112.812 25.3505 111.449 25.8245" fill="#0036DA"/>
<path fill-rule="evenodd" clip-rule="evenodd" d="M154.269 9.64059C154.277 8.60494 154.206 7.57037 154.057 6.54724C153.545 3.09207 151.316 0.776559 148.078 0.607729C145.041 0.463006 141.993 0.481101 138.961 0.607729C136.632 0.734357 134.67 1.91623 133.829 4.34028C133.234 6.07831 132.919 7.91396 132.898 9.76722C132.815 20.9709 132.854 32.1746 132.854 43.3842C132.854 43.6737 132.854 43.9871 132.854 44.2706C132.854 45.1088 133.222 45.5067 134.035 45.4766C135.35 45.4344 136.671 45.4163 137.992 45.4766C138.973 45.5248 139.234 45.0304 139.229 44.0655V34.1884L147.727 31.1735V37.2699C147.727 39.4888 147.727 41.6657 147.694 43.8245C147.694 45.145 148.089 45.5912 149.265 45.4826C150.307 45.4042 151.355 45.4826 152.402 45.4826C154.236 45.4826 154.264 45.4525 154.264 43.3902C154.264 32.1343 154.264 20.8784 154.264 9.6225L154.269 9.64059ZM139.218 27.7123V9.6225C139.218 7.15022 139.747 6.57738 142.004 6.56531C143.269 6.56531 144.545 6.56531 145.81 6.61958C146.064 6.60764 146.317 6.65417 146.553 6.75609C146.789 6.858 147.002 7.013 147.179 7.21081C147.355 7.40863 147.491 7.64475 147.577 7.90354C147.663 8.16232 147.697 8.43788 147.677 8.71197C147.677 13.7772 147.677 18.8544 147.677 24.016V24.7215L139.218 27.7123Z" fill="#0036DA"/>
<path fill-rule="evenodd" clip-rule="evenodd" d="M165.52 33.7473C165.52 37.1578 165.443 40.3796 165.555 43.5774C165.609 45.1215 165.075 45.6138 163.641 45.468C162.639 45.3647 161.62 45.468 160.6 45.468C158.55 45.468 158.55 45.468 158.55 43.2855V2.55479C158.55 0.5 158.55 0.5 160.583 0.5H173.201C178.138 0.5 181.024 3.25389 181.136 8.3118C181.243 13.8986 181.231 19.5097 181.136 25.1088C181.071 28.4219 179.856 31.1879 176.348 32.4766C177.018 33.9053 177.598 35.188 178.215 36.4647C179.4 38.8964 180.585 41.3281 181.729 43.7598C182.417 45.2186 182.269 45.4254 180.651 45.4377C175.257 45.5105 175.257 45.5105 172.946 40.4709C172.092 38.5923 171.197 36.7322 170.403 34.8355C170.295 34.4563 170.053 34.1321 169.724 33.9263C169.395 33.7204 169.003 33.648 168.625 33.7229C167.665 33.7959 166.699 33.7229 165.508 33.7229L165.52 33.7473ZM165.614 6.64609V27.5708C167.778 27.5708 169.84 27.5708 171.909 27.5708C173.361 27.5708 174.149 26.7744 174.161 25.2606C174.202 19.7893 174.196 14.3728 174.161 8.93188C174.161 7.80115 173.699 6.76161 172.489 6.69474C170.196 6.57315 167.89 6.65826 165.603 6.65826" fill="#0036DA"/>
<path fill-rule="evenodd" clip-rule="evenodd" d="M207.798 22.9989C207.798 27.5804 207.83 32.1559 207.798 36.7374C207.787 37.9975 207.626 39.2504 207.321 40.4647C207.035 41.8575 206.328 43.1015 205.317 43.9936C204.306 44.8855 203.05 45.3724 201.756 45.3749C199.152 45.524 196.554 45.5061 193.955 45.4822C189.055 45.4285 186.662 42.8839 186.451 37.4482C186.354 34.9634 186.424 32.4785 186.419 29.9936C186.419 23.184 186.37 16.3685 186.451 9.55898C186.475 7.91109 186.737 6.27786 187.226 4.72062C188.043 2.11628 189.965 0.808113 192.385 0.652823C195.092 0.485553 197.853 0.485574 200.587 0.53335C205.259 0.616985 207.733 3.35273 207.798 8.56145C207.857 13.3819 207.798 18.1963 207.798 23.0108V22.9989ZM201.431 22.9989C201.431 18.3695 201.431 13.7462 201.431 9.11696C201.431 7.32498 200.803 6.62609 199.212 6.54844C198.129 6.48871 197.003 6.51858 195.904 6.54844C193.273 6.54844 192.78 7.08006 192.78 9.92933C192.78 15.2336 192.78 20.5418 192.78 25.8541C192.78 29.3605 192.78 32.8666 192.78 36.373C192.78 38.8401 193.365 39.4553 195.628 39.4792C196.645 39.4792 197.663 39.4792 198.676 39.4792C200.841 39.4493 201.431 38.834 201.442 36.4566C201.442 31.9808 201.442 27.5026 201.442 23.0228" fill="#0036DA"/>
</g>
<defs>
<clipPath id="clip0_4728_21622">
<rect width="208.125" height="45" fill="white" transform="translate(0 0.5)"/>
</clipPath>
</defs>
</svg>
